<svg width="114" height="131" viewBox="0 0 114 131" fill="none" xmlns="http://www.w3.org/2000/svg">
<g clip-path="url(#clip0_546_979)">
<path d="M56.72 101.13V83.31L41.29 92.22V74.4L25.86 83.31V59.92L0 44.93V98.24L56.72 130.99L102.83 104.37L77.02 89.4L56.72 101.13Z" fill="url(#paint0_linear_546_979)"/>
<path d="M56.72 0L10.52 26.68L36.33 41.64L56.72 29.86V47.68L72.15 38.77V56.59L87.58 47.68V71.17L113.44 86.17V32.75L56.72 0Z" fill="url(#paint1_linear_546_979)"/>
<path d="M41.2901 56.59L56.7201 47.68V29.86L25.8601 47.68V83.31L41.2901 74.4V56.59Z" fill="black"/>
<path d="M66.89 83.52V71.36L77.42 65.28L87.59 71.17V47.68L56.73 65.49V101.13L77.03 89.4L66.89 83.52Z" fill="black"/>
</g>
<defs>
<linearGradient id="paint0_linear_546_979" x1="51.43" y1="74.62" x2="28.35" y2="114.61" gradientUnits="userSpaceOnUse">
<stop stop-color="#7790E2"/>
<stop offset="1" stop-color="#486DDC"/>
</linearGradient>
<linearGradient id="paint1_linear_546_979" x1="85.09" y1="16.38" x2="61.96" y2="56.45" gradientUnits="userSpaceOnUse">
<stop stop-color="#7790E2"/>
<stop offset="1" stop-color="#486DDC"/>
</linearGradient>
<clipPath id="clip0_546_979">
<rect width="113.44" height="130.99" fill="white"/>
</clipPath>
</defs>
</svg>
